<mxfile host="app.diagrams.net" modified="2024-05-04T16:50:59.903Z" agent="Mozilla/5.0 (Windows NT 10.0; Win64; x64; rv:125.0) Gecko/20100101 Firefox/125.0" etag="Hn9yNYiOSmrZOs7WvtLc" version="24.3.1" type="device">
  <diagram id="C5RBs43oDa-KdzZeNtuy" name="Page-1">
    <mxGraphModel dx="1318" dy="1767" grid="1" gridSize="10" guides="1" tooltips="1" connect="1" arrows="1" fold="1" page="1" pageScale="1" pageWidth="827" pageHeight="1169" math="0" shadow="0">
      <root>
        <mxCell id="WIyWlLk6GJQsqaUBKTNV-0" />
        <mxCell id="WIyWlLk6GJQsqaUBKTNV-1" parent="WIyWlLk6GJQsqaUBKTNV-0" />
        <mxCell id="qooZsIYU2UdWdq-zRQ_D-87" value="" style="edgeStyle=orthogonalEdgeStyle;rounded=0;orthogonalLoop=1;jettySize=auto;html=1;" edge="1" parent="WIyWlLk6GJQsqaUBKTNV-1" source="qooZsIYU2UdWdq-zRQ_D-85" target="qooZsIYU2UdWdq-zRQ_D-86">
          <mxGeometry relative="1" as="geometry" />
        </mxCell>
        <mxCell id="qooZsIYU2UdWdq-zRQ_D-85" value="Mulai" style="ellipse;whiteSpace=wrap;html=1;" vertex="1" parent="WIyWlLk6GJQsqaUBKTNV-1">
          <mxGeometry x="780" y="-40" width="120" height="80" as="geometry" />
        </mxCell>
        <mxCell id="qooZsIYU2UdWdq-zRQ_D-90" value="" style="edgeStyle=orthogonalEdgeStyle;rounded=0;orthogonalLoop=1;jettySize=auto;html=1;" edge="1" parent="WIyWlLk6GJQsqaUBKTNV-1" source="qooZsIYU2UdWdq-zRQ_D-86" target="qooZsIYU2UdWdq-zRQ_D-89">
          <mxGeometry relative="1" as="geometry" />
        </mxCell>
        <mxCell id="qooZsIYU2UdWdq-zRQ_D-86" value="Halaman Awal" style="shape=parallelogram;perimeter=parallelogramPerimeter;whiteSpace=wrap;html=1;fixedSize=1;" vertex="1" parent="WIyWlLk6GJQsqaUBKTNV-1">
          <mxGeometry x="745" y="130" width="190" height="90" as="geometry" />
        </mxCell>
        <mxCell id="qooZsIYU2UdWdq-zRQ_D-94" value="" style="edgeStyle=orthogonalEdgeStyle;rounded=0;orthogonalLoop=1;jettySize=auto;html=1;" edge="1" parent="WIyWlLk6GJQsqaUBKTNV-1" source="qooZsIYU2UdWdq-zRQ_D-89" target="qooZsIYU2UdWdq-zRQ_D-93">
          <mxGeometry relative="1" as="geometry" />
        </mxCell>
        <mxCell id="qooZsIYU2UdWdq-zRQ_D-89" value="&lt;div&gt;Pengguna memasukkan&lt;/div&gt;&lt;div&gt;data diri berupa Nama&lt;br&gt;&lt;/div&gt;" style="shape=parallelogram;perimeter=parallelogramPerimeter;whiteSpace=wrap;html=1;fixedSize=1;" vertex="1" parent="WIyWlLk6GJQsqaUBKTNV-1">
          <mxGeometry x="745" y="300" width="190" height="90" as="geometry" />
        </mxCell>
        <mxCell id="qooZsIYU2UdWdq-zRQ_D-98" value="" style="edgeStyle=orthogonalEdgeStyle;rounded=0;orthogonalLoop=1;jettySize=auto;html=1;" edge="1" parent="WIyWlLk6GJQsqaUBKTNV-1" source="qooZsIYU2UdWdq-zRQ_D-93" target="qooZsIYU2UdWdq-zRQ_D-97">
          <mxGeometry relative="1" as="geometry" />
        </mxCell>
        <mxCell id="qooZsIYU2UdWdq-zRQ_D-93" value="&lt;div&gt;Pengguna memilih Rute,&lt;br&gt;&lt;/div&gt;&lt;div&gt;Kelas tiket dan jumlah tiket&lt;/div&gt;&lt;div&gt;yang dipesan&lt;br&gt;&lt;/div&gt;" style="shape=parallelogram;perimeter=parallelogramPerimeter;whiteSpace=wrap;html=1;fixedSize=1;" vertex="1" parent="WIyWlLk6GJQsqaUBKTNV-1">
          <mxGeometry x="745" y="470" width="190" height="90" as="geometry" />
        </mxCell>
        <mxCell id="qooZsIYU2UdWdq-zRQ_D-100" value="" style="edgeStyle=orthogonalEdgeStyle;rounded=0;orthogonalLoop=1;jettySize=auto;html=1;" edge="1" parent="WIyWlLk6GJQsqaUBKTNV-1" source="qooZsIYU2UdWdq-zRQ_D-97">
          <mxGeometry relative="1" as="geometry">
            <mxPoint x="840" y="800" as="targetPoint" />
          </mxGeometry>
        </mxCell>
        <mxCell id="qooZsIYU2UdWdq-zRQ_D-104" style="edgeStyle=orthogonalEdgeStyle;rounded=0;orthogonalLoop=1;jettySize=auto;html=1;" edge="1" parent="WIyWlLk6GJQsqaUBKTNV-1">
          <mxGeometry relative="1" as="geometry">
            <mxPoint x="840" y="260" as="targetPoint" />
            <mxPoint x="890" y="687.5" as="sourcePoint" />
            <Array as="points">
              <mxPoint x="1040" y="688" />
              <mxPoint x="1040" y="260" />
              <mxPoint x="940" y="260" />
            </Array>
          </mxGeometry>
        </mxCell>
        <mxCell id="qooZsIYU2UdWdq-zRQ_D-97" value="&lt;div&gt;Apakah Tombol Lanjut&lt;/div&gt;&lt;div&gt;ditekan?&lt;br&gt;&lt;/div&gt;" style="rhombus;whiteSpace=wrap;html=1;" vertex="1" parent="WIyWlLk6GJQsqaUBKTNV-1">
          <mxGeometry x="760" y="610" width="160" height="155" as="geometry" />
        </mxCell>
        <mxCell id="qooZsIYU2UdWdq-zRQ_D-103" value="" style="edgeStyle=orthogonalEdgeStyle;rounded=0;orthogonalLoop=1;jettySize=auto;html=1;" edge="1" parent="WIyWlLk6GJQsqaUBKTNV-1" source="qooZsIYU2UdWdq-zRQ_D-101">
          <mxGeometry relative="1" as="geometry">
            <mxPoint x="840" y="950" as="targetPoint" />
          </mxGeometry>
        </mxCell>
        <mxCell id="qooZsIYU2UdWdq-zRQ_D-101" value="&lt;div&gt;Menampilan messagebox&lt;/div&gt;&lt;div&gt;dengan tombol OK&lt;/div&gt;&lt;div&gt;atau cancel&lt;br&gt;&lt;/div&gt;" style="shape=parallelogram;perimeter=parallelogramPerimeter;whiteSpace=wrap;html=1;fixedSize=1;" vertex="1" parent="WIyWlLk6GJQsqaUBKTNV-1">
          <mxGeometry x="745" y="800" width="190" height="90" as="geometry" />
        </mxCell>
        <mxCell id="qooZsIYU2UdWdq-zRQ_D-106" style="edgeStyle=orthogonalEdgeStyle;rounded=0;orthogonalLoop=1;jettySize=auto;html=1;" edge="1" parent="WIyWlLk6GJQsqaUBKTNV-1" source="qooZsIYU2UdWdq-zRQ_D-105">
          <mxGeometry relative="1" as="geometry">
            <mxPoint x="840" y="260" as="targetPoint" />
            <Array as="points">
              <mxPoint x="670" y="1028" />
            </Array>
          </mxGeometry>
        </mxCell>
        <mxCell id="qooZsIYU2UdWdq-zRQ_D-111" value="" style="edgeStyle=orthogonalEdgeStyle;rounded=0;orthogonalLoop=1;jettySize=auto;html=1;" edge="1" parent="WIyWlLk6GJQsqaUBKTNV-1" source="qooZsIYU2UdWdq-zRQ_D-105" target="qooZsIYU2UdWdq-zRQ_D-110">
          <mxGeometry relative="1" as="geometry" />
        </mxCell>
        <mxCell id="qooZsIYU2UdWdq-zRQ_D-105" value="Ok atau Cancel" style="rhombus;whiteSpace=wrap;html=1;" vertex="1" parent="WIyWlLk6GJQsqaUBKTNV-1">
          <mxGeometry x="760" y="950" width="160" height="155" as="geometry" />
        </mxCell>
        <mxCell id="qooZsIYU2UdWdq-zRQ_D-107" value="Tidak" style="text;html=1;align=center;verticalAlign=middle;resizable=0;points=[];autosize=1;strokeColor=none;fillColor=none;" vertex="1" parent="WIyWlLk6GJQsqaUBKTNV-1">
          <mxGeometry x="930" y="658" width="50" height="30" as="geometry" />
        </mxCell>
        <mxCell id="qooZsIYU2UdWdq-zRQ_D-108" value="&lt;div&gt;Ya&lt;/div&gt;&lt;div&gt;&lt;br&gt;&lt;/div&gt;" style="text;html=1;align=center;verticalAlign=middle;resizable=0;points=[];autosize=1;strokeColor=none;fillColor=none;" vertex="1" parent="WIyWlLk6GJQsqaUBKTNV-1">
          <mxGeometry x="860" y="753" width="40" height="40" as="geometry" />
        </mxCell>
        <mxCell id="qooZsIYU2UdWdq-zRQ_D-109" value="Cancel" style="text;html=1;align=center;verticalAlign=middle;resizable=0;points=[];autosize=1;strokeColor=none;fillColor=none;" vertex="1" parent="WIyWlLk6GJQsqaUBKTNV-1">
          <mxGeometry x="710" y="998" width="60" height="30" as="geometry" />
        </mxCell>
        <mxCell id="qooZsIYU2UdWdq-zRQ_D-113" value="" style="edgeStyle=orthogonalEdgeStyle;rounded=0;orthogonalLoop=1;jettySize=auto;html=1;" edge="1" parent="WIyWlLk6GJQsqaUBKTNV-1" source="qooZsIYU2UdWdq-zRQ_D-110">
          <mxGeometry relative="1" as="geometry">
            <mxPoint x="840" y="1330" as="targetPoint" />
          </mxGeometry>
        </mxCell>
        <mxCell id="qooZsIYU2UdWdq-zRQ_D-110" value="&lt;div&gt;Program menyimpan semua data&lt;/div&gt;&lt;div&gt;pada halaman awal&lt;br&gt;&lt;/div&gt;" style="whiteSpace=wrap;html=1;" vertex="1" parent="WIyWlLk6GJQsqaUBKTNV-1">
          <mxGeometry x="730" y="1130" width="220" height="100" as="geometry" />
        </mxCell>
        <mxCell id="qooZsIYU2UdWdq-zRQ_D-116" value="" style="edgeStyle=orthogonalEdgeStyle;rounded=0;orthogonalLoop=1;jettySize=auto;html=1;" edge="1" parent="WIyWlLk6GJQsqaUBKTNV-1" source="qooZsIYU2UdWdq-zRQ_D-114" target="qooZsIYU2UdWdq-zRQ_D-115">
          <mxGeometry relative="1" as="geometry" />
        </mxCell>
        <mxCell id="qooZsIYU2UdWdq-zRQ_D-114" value="&lt;div&gt;Menampilan Halaman&lt;/div&gt;&lt;div&gt;Pembayaran&lt;br&gt;&lt;/div&gt;" style="shape=parallelogram;perimeter=parallelogramPerimeter;whiteSpace=wrap;html=1;fixedSize=1;" vertex="1" parent="WIyWlLk6GJQsqaUBKTNV-1">
          <mxGeometry x="745" y="1330" width="190" height="90" as="geometry" />
        </mxCell>
        <mxCell id="qooZsIYU2UdWdq-zRQ_D-118" value="" style="edgeStyle=orthogonalEdgeStyle;rounded=0;orthogonalLoop=1;jettySize=auto;html=1;" edge="1" parent="WIyWlLk6GJQsqaUBKTNV-1" source="qooZsIYU2UdWdq-zRQ_D-115">
          <mxGeometry relative="1" as="geometry">
            <mxPoint x="840" y="1675" as="targetPoint" />
          </mxGeometry>
        </mxCell>
        <mxCell id="qooZsIYU2UdWdq-zRQ_D-115" value="&lt;div&gt;Pengguna Memasukkan&lt;/div&gt;&lt;div&gt;Jumlah Uang&lt;br&gt;&lt;/div&gt;" style="shape=parallelogram;perimeter=parallelogramPerimeter;whiteSpace=wrap;html=1;fixedSize=1;" vertex="1" parent="WIyWlLk6GJQsqaUBKTNV-1">
          <mxGeometry x="745" y="1500" width="190" height="90" as="geometry" />
        </mxCell>
        <mxCell id="qooZsIYU2UdWdq-zRQ_D-122" value="" style="edgeStyle=orthogonalEdgeStyle;rounded=0;orthogonalLoop=1;jettySize=auto;html=1;entryX=0.453;entryY=1.022;entryDx=0;entryDy=0;entryPerimeter=0;exitX=1;exitY=0.5;exitDx=0;exitDy=0;" edge="1" parent="WIyWlLk6GJQsqaUBKTNV-1" source="qooZsIYU2UdWdq-zRQ_D-119">
          <mxGeometry relative="1" as="geometry">
            <mxPoint x="930" y="1751.52" as="sourcePoint" />
            <mxPoint x="1106.0700000000002" y="1590" as="targetPoint" />
            <Array as="points">
              <mxPoint x="1106" y="1977" />
            </Array>
          </mxGeometry>
        </mxCell>
        <mxCell id="qooZsIYU2UdWdq-zRQ_D-130" style="edgeStyle=orthogonalEdgeStyle;rounded=0;orthogonalLoop=1;jettySize=auto;html=1;entryX=0.5;entryY=0;entryDx=0;entryDy=0;" edge="1" parent="WIyWlLk6GJQsqaUBKTNV-1" target="qooZsIYU2UdWdq-zRQ_D-127">
          <mxGeometry relative="1" as="geometry">
            <mxPoint x="840" y="2055" as="sourcePoint" />
          </mxGeometry>
        </mxCell>
        <mxCell id="qooZsIYU2UdWdq-zRQ_D-119" value="Uang Cukup?" style="rhombus;whiteSpace=wrap;html=1;" vertex="1" parent="WIyWlLk6GJQsqaUBKTNV-1">
          <mxGeometry x="760" y="1900" width="160" height="155" as="geometry" />
        </mxCell>
        <mxCell id="qooZsIYU2UdWdq-zRQ_D-124" style="edgeStyle=orthogonalEdgeStyle;rounded=0;orthogonalLoop=1;jettySize=auto;html=1;exitX=0.5;exitY=0.111;exitDx=0;exitDy=0;exitPerimeter=0;" edge="1" parent="WIyWlLk6GJQsqaUBKTNV-1" source="qooZsIYU2UdWdq-zRQ_D-123">
          <mxGeometry relative="1" as="geometry">
            <mxPoint x="840" y="1460" as="targetPoint" />
            <mxPoint x="1105" y="1320" as="sourcePoint" />
            <Array as="points">
              <mxPoint x="1120" y="1510" />
              <mxPoint x="1120" y="1460" />
            </Array>
          </mxGeometry>
        </mxCell>
        <mxCell id="qooZsIYU2UdWdq-zRQ_D-123" value="Uang tidak mencukupi" style="shape=parallelogram;perimeter=parallelogramPerimeter;whiteSpace=wrap;html=1;fixedSize=1;" vertex="1" parent="WIyWlLk6GJQsqaUBKTNV-1">
          <mxGeometry x="1000" y="1500" width="190" height="90" as="geometry" />
        </mxCell>
        <mxCell id="qooZsIYU2UdWdq-zRQ_D-131" style="edgeStyle=orthogonalEdgeStyle;rounded=0;orthogonalLoop=1;jettySize=auto;html=1;entryX=0.5;entryY=0;entryDx=0;entryDy=0;" edge="1" parent="WIyWlLk6GJQsqaUBKTNV-1" source="qooZsIYU2UdWdq-zRQ_D-127" target="qooZsIYU2UdWdq-zRQ_D-128">
          <mxGeometry relative="1" as="geometry" />
        </mxCell>
        <mxCell id="qooZsIYU2UdWdq-zRQ_D-127" value="&lt;div&gt;Program Menghitung uang kembalian&lt;br&gt;&lt;/div&gt;" style="whiteSpace=wrap;html=1;" vertex="1" parent="WIyWlLk6GJQsqaUBKTNV-1">
          <mxGeometry x="730" y="2109" width="220" height="100" as="geometry" />
        </mxCell>
        <mxCell id="qooZsIYU2UdWdq-zRQ_D-135" style="edgeStyle=orthogonalEdgeStyle;rounded=0;orthogonalLoop=1;jettySize=auto;html=1;entryX=0.5;entryY=0;entryDx=0;entryDy=0;" edge="1" parent="WIyWlLk6GJQsqaUBKTNV-1" source="qooZsIYU2UdWdq-zRQ_D-128" target="qooZsIYU2UdWdq-zRQ_D-133">
          <mxGeometry relative="1" as="geometry" />
        </mxCell>
        <mxCell id="qooZsIYU2UdWdq-zRQ_D-128" value="&lt;div&gt;Menampilan Halaman&lt;/div&gt;&lt;div&gt;Konfirmasi Pemesanan&lt;/div&gt;&lt;div&gt;berhasil&lt;br&gt;&lt;/div&gt;" style="shape=parallelogram;perimeter=parallelogramPerimeter;whiteSpace=wrap;html=1;fixedSize=1;" vertex="1" parent="WIyWlLk6GJQsqaUBKTNV-1">
          <mxGeometry x="745" y="2265" width="190" height="90" as="geometry" />
        </mxCell>
        <mxCell id="qooZsIYU2UdWdq-zRQ_D-133" value="Selesai" style="ellipse;whiteSpace=wrap;html=1;" vertex="1" parent="WIyWlLk6GJQsqaUBKTNV-1">
          <mxGeometry x="780" y="2404" width="120" height="80" as="geometry" />
        </mxCell>
        <mxCell id="qooZsIYU2UdWdq-zRQ_D-137" style="edgeStyle=orthogonalEdgeStyle;rounded=0;orthogonalLoop=1;jettySize=auto;html=1;" edge="1" parent="WIyWlLk6GJQsqaUBKTNV-1" source="qooZsIYU2UdWdq-zRQ_D-136" target="qooZsIYU2UdWdq-zRQ_D-119">
          <mxGeometry relative="1" as="geometry" />
        </mxCell>
        <mxCell id="qooZsIYU2UdWdq-zRQ_D-141" value="" style="edgeStyle=orthogonalEdgeStyle;rounded=0;orthogonalLoop=1;jettySize=auto;html=1;entryX=0.5;entryY=1;entryDx=0;entryDy=0;" edge="1" parent="WIyWlLk6GJQsqaUBKTNV-1" source="qooZsIYU2UdWdq-zRQ_D-136" target="qooZsIYU2UdWdq-zRQ_D-142">
          <mxGeometry relative="1" as="geometry">
            <mxPoint x="650" y="1752.5" as="targetPoint" />
          </mxGeometry>
        </mxCell>
        <mxCell id="qooZsIYU2UdWdq-zRQ_D-136" value="Input berupa Integer?" style="rhombus;whiteSpace=wrap;html=1;" vertex="1" parent="WIyWlLk6GJQsqaUBKTNV-1">
          <mxGeometry x="760" y="1675" width="160" height="155" as="geometry" />
        </mxCell>
        <mxCell id="qooZsIYU2UdWdq-zRQ_D-138" value="Tidak" style="text;html=1;align=center;verticalAlign=middle;resizable=0;points=[];autosize=1;strokeColor=none;fillColor=none;" vertex="1" parent="WIyWlLk6GJQsqaUBKTNV-1">
          <mxGeometry x="935" y="1938" width="50" height="30" as="geometry" />
        </mxCell>
        <mxCell id="qooZsIYU2UdWdq-zRQ_D-143" style="edgeStyle=orthogonalEdgeStyle;rounded=0;orthogonalLoop=1;jettySize=auto;html=1;" edge="1" parent="WIyWlLk6GJQsqaUBKTNV-1" source="qooZsIYU2UdWdq-zRQ_D-142">
          <mxGeometry relative="1" as="geometry">
            <mxPoint x="840" y="1460" as="targetPoint" />
            <Array as="points">
              <mxPoint x="565" y="1460" />
            </Array>
          </mxGeometry>
        </mxCell>
        <mxCell id="qooZsIYU2UdWdq-zRQ_D-142" value="&lt;div&gt;Masukkan jumlah&lt;/div&gt;&lt;div&gt;uang yang valid&lt;/div&gt;" style="shape=parallelogram;perimeter=parallelogramPerimeter;whiteSpace=wrap;html=1;fixedSize=1;" vertex="1" parent="WIyWlLk6GJQsqaUBKTNV-1">
          <mxGeometry x="470" y="1560" width="190" height="90" as="geometry" />
        </mxCell>
        <mxCell id="qooZsIYU2UdWdq-zRQ_D-144" value="&lt;div&gt;OK&lt;/div&gt;" style="text;html=1;align=center;verticalAlign=middle;resizable=0;points=[];autosize=1;strokeColor=none;fillColor=none;" vertex="1" parent="WIyWlLk6GJQsqaUBKTNV-1">
          <mxGeometry x="840" y="1100" width="40" height="30" as="geometry" />
        </mxCell>
        <mxCell id="qooZsIYU2UdWdq-zRQ_D-145" value="Ya" style="text;html=1;align=center;verticalAlign=middle;resizable=0;points=[];autosize=1;strokeColor=none;fillColor=none;" vertex="1" parent="WIyWlLk6GJQsqaUBKTNV-1">
          <mxGeometry x="850" y="2048" width="40" height="30" as="geometry" />
        </mxCell>
        <mxCell id="qooZsIYU2UdWdq-zRQ_D-146" value="Ya" style="text;html=1;align=center;verticalAlign=middle;resizable=0;points=[];autosize=1;strokeColor=none;fillColor=none;" vertex="1" parent="WIyWlLk6GJQsqaUBKTNV-1">
          <mxGeometry x="850" y="1830" width="40" height="30" as="geometry" />
        </mxCell>
        <mxCell id="qooZsIYU2UdWdq-zRQ_D-147" value="Tidak" style="text;html=1;align=center;verticalAlign=middle;resizable=0;points=[];autosize=1;strokeColor=none;fillColor=none;" vertex="1" parent="WIyWlLk6GJQsqaUBKTNV-1">
          <mxGeometry x="710" y="1723" width="50" height="30" as="geometry" />
        </mxCell>
      </root>
    </mxGraphModel>
  </diagram>
</mxfile>
